<svg width="83" height="114" viewBox="0 0 83 114" fill="none" xmlns="http://www.w3.org/2000/svg">
<path d="M40 105.273C33.1515 105.273 27.3182 103.409 22.5 99.6818C17.6818 95.9242 14 90.4848 11.4545 83.3636C8.90909 76.2121 7.63636 67.5758 7.63636 57.4545C7.63636 47.3939 8.90909 38.803 11.4545 31.6818C14.0303 24.5303 17.7273 19.0758 22.5455 15.3182C27.3939 11.5303 33.2121 9.63636 40 9.63636C46.7879 9.63636 52.5909 11.5303 57.4091 15.3182C62.2576 19.0758 65.9545 24.5303 68.5 31.6818C71.0758 38.803 72.3636 47.3939 72.3636 57.4545C72.3636 67.5758 71.0909 76.2121 68.5455 83.3636C66 90.4848 62.3182 95.9242 57.5 99.6818C52.6818 103.409 46.8485 105.273 40 105.273ZM40 95.2727C46.7879 95.2727 52.0606 92 55.8182 85.4545C59.5758 78.9091 61.4545 69.5758 61.4545 57.4545C61.4545 49.3939 60.5909 42.5303 58.8636 36.8636C57.1667 31.197 54.7121 26.8788 51.5 23.9091C48.3182 20.9394 44.4849 19.4545 40 19.4545C33.2727 19.4545 28.0152 22.7727 24.2273 29.4091C20.4394 36.0151 18.5455 45.3636 18.5455 57.4545C18.5455 65.5151 19.3939 72.3636 21.0909 78C22.7879 83.6364 25.2273 87.9242 28.4091 90.8636C31.6212 93.803 35.4848 95.2727 40 95.2727Z" fill="black"/>
</svg>
