<svg width="83" height="114" viewBox="0 0 83 114" fill="none" xmlns="http://www.w3.org/2000/svg">
<path d="M9.88636 104V95.8182L40.6136 62.1818C44.2197 58.2424 47.1894 54.8182 49.5227 51.9091C51.8561 48.9697 53.5833 46.2121 54.7045 43.6364C55.8561 41.0303 56.4318 38.303 56.4318 35.4545C56.4318 32.1818 55.6439 29.3485 54.0682 26.9545C52.5227 24.5606 50.4015 22.7121 47.7045 21.4091C45.0076 20.1061 41.9773 19.4545 38.6136 19.4545C35.0379 19.4545 31.9167 20.197 29.25 21.6818C26.6136 23.1364 24.5682 25.1818 23.1136 27.8182C21.6894 30.4545 20.9773 33.5455 20.9773 37.0909H10.25C10.25 31.6364 11.5076 26.8485 14.0227 22.7273C16.5379 18.6061 19.9621 15.3939 24.2955 13.0909C28.6591 10.7879 33.553 9.63636 38.9773 9.63636C44.4318 9.63636 49.2652 10.7879 53.4773 13.0909C57.6894 15.3939 60.9924 18.5 63.3864 22.4091C65.7803 26.3182 66.9773 30.6667 66.9773 35.4545C66.9773 38.8788 66.3561 42.2273 65.1136 45.5C63.9015 48.7424 61.7803 52.3636 58.75 56.3636C55.75 60.3333 51.5833 65.1818 46.25 70.9091L25.3409 93.2727V94H68.6136V104H9.88636Z" fill="black"/>
</svg>
