<svg width="83" height="114" viewBox="0 0 83 114" fill="none" xmlns="http://www.w3.org/2000/svg">
<path d="M41.3409 105.273C35.3409 105.273 29.9924 104.242 25.2955 102.182C20.6288 100.121 16.9167 97.2576 14.1591 93.5909C11.4318 89.8939 9.94697 85.6061 9.70455 80.7273H21.1591C21.4015 83.7273 22.4318 86.3182 24.25 88.5C26.0682 90.6515 28.447 92.3182 31.3864 93.5C34.3258 94.6818 37.5833 95.2727 41.1591 95.2727C45.1591 95.2727 48.7045 94.5758 51.7955 93.1818C54.8864 91.7879 57.3106 89.8485 59.0682 87.3636C60.8258 84.8788 61.7045 82 61.7045 78.7273C61.7045 75.303 60.8561 72.2879 59.1591 69.6818C57.4621 67.0455 54.9773 64.9848 51.7045 63.5C48.4318 62.0151 44.4318 61.2727 39.7045 61.2727H32.25V51.2727H39.7045C43.4015 51.2727 46.6439 50.6061 49.4318 49.2727C52.25 47.9394 54.447 46.0606 56.0227 43.6364C57.6288 41.2121 58.4318 38.3636 58.4318 35.0909C58.4318 31.9394 57.7349 29.197 56.3409 26.8636C54.947 24.5303 52.9773 22.7121 50.4318 21.4091C47.9167 20.1061 44.947 19.4545 41.5227 19.4545C38.3106 19.4545 35.2803 20.0455 32.4318 21.2273C29.6136 22.3788 27.3106 24.0606 25.5227 26.2727C23.7348 28.4545 22.7652 31.0909 22.6136 34.1818H11.7045C11.8864 29.303 13.3561 25.0303 16.1136 21.3636C18.8712 17.6667 22.4773 14.7879 26.9318 12.7273C31.4167 10.6667 36.3409 9.63636 41.7045 9.63636C47.4621 9.63636 52.4015 10.803 56.5227 13.1364C60.6439 15.4394 63.8106 18.4848 66.0227 22.2727C68.2349 26.0606 69.3409 30.1515 69.3409 34.5455C69.3409 39.7879 67.9621 44.2576 65.2045 47.9545C62.4773 51.6515 58.7652 54.2121 54.0682 55.6364V56.3636C59.947 57.3333 64.5379 59.8333 67.8409 63.8636C71.1439 67.8636 72.7955 72.8182 72.7955 78.7273C72.7955 83.7879 71.4167 88.3333 68.6591 92.3636C65.9318 96.3636 62.2045 99.5152 57.4773 101.818C52.75 104.121 47.3712 105.273 41.3409 105.273Z" fill="black"/>
</svg>
