<svg width="83" height="114" viewBox="0 0 83 114" fill="none" xmlns="http://www.w3.org/2000/svg">
<path d="M38.7898 105.273C33.4564 105.273 28.6534 104.212 24.3807 102.091C20.108 99.9697 16.6837 97.0606 14.108 93.3636C11.5322 89.6667 10.1231 85.4545 9.88068 80.7273H20.7898C21.214 84.9394 23.1231 88.4242 26.517 91.1818C29.9413 93.9091 34.0322 95.2727 38.7898 95.2727C42.608 95.2727 46.0019 94.3788 48.9716 92.5909C51.9716 90.803 54.3201 88.3485 56.017 85.2273C57.7443 82.0758 58.608 78.5152 58.608 74.5455C58.608 70.4848 57.714 66.8636 55.9261 63.6818C54.1686 60.4697 51.7443 57.9394 48.6534 56.0909C45.5625 54.2424 42.0322 53.303 38.0625 53.2727C35.214 53.2424 32.2898 53.6818 29.2898 54.5909C26.2898 55.4697 23.8201 56.6061 21.8807 58L11.3352 56.7273L16.9716 10.9091H65.3352V20.9091H26.4261L23.1534 48.3636H23.6989C25.608 46.8485 28.0019 45.5909 30.8807 44.5909C33.7595 43.5909 36.7595 43.0909 39.8807 43.0909C45.5777 43.0909 50.6534 44.4545 55.108 47.1818C59.5928 49.8788 63.108 53.5758 65.6534 58.2727C68.2292 62.9697 69.517 68.3333 69.517 74.3636C69.517 80.303 68.1837 85.6061 65.517 90.2727C62.8807 94.9091 59.2443 98.5758 54.608 101.273C49.9716 103.939 44.6989 105.273 38.7898 105.273Z" fill="black"/>
</svg>
