<svg width="83" height="114" viewBox="0 0 83 114" fill="none" xmlns="http://www.w3.org/2000/svg">
<path d="M40.608 105.273C36.7898 105.212 32.9716 104.485 29.1534 103.091C25.3352 101.697 21.8504 99.3485 18.6989 96.0455C15.5473 92.7121 13.017 88.2121 11.108 82.5455C9.19886 76.8485 8.24432 69.697 8.24432 61.0909C8.24432 52.8485 9.01705 45.5455 10.5625 39.1818C12.108 32.7879 14.3504 27.4091 17.2898 23.0455C20.2292 18.6515 23.7746 15.3182 27.9261 13.0454C32.108 10.7727 36.8201 9.63636 42.0625 9.63636C47.2746 9.63636 51.911 10.6818 55.9716 12.7727C60.0625 14.8333 63.3958 17.7121 65.9716 21.4091C68.5474 25.1061 70.214 29.3636 70.9716 34.1818H59.8807C58.8504 30 56.8504 26.5303 53.8807 23.7727C50.911 21.0151 46.9716 19.6364 42.0625 19.6364C34.8504 19.6364 29.1686 22.7727 25.017 29.0455C20.8958 35.3182 18.8201 44.1212 18.7898 55.4545H19.517C21.214 52.8788 23.2292 50.6818 25.5625 48.8636C27.9261 47.0152 30.5322 45.5909 33.3807 44.5909C36.2292 43.5909 39.2443 43.0909 42.4261 43.0909C47.7595 43.0909 52.6383 44.4242 57.0625 47.0909C61.4867 49.7273 65.0322 53.3788 67.6989 58.0455C70.3655 62.6818 71.6989 68 71.6989 74C71.6989 79.7576 70.411 85.0303 67.8352 89.8182C65.2595 94.5758 61.6383 98.3636 56.9716 101.182C52.3352 103.97 46.8807 105.333 40.608 105.273ZM40.608 95.2727C44.4261 95.2727 47.8504 94.3182 50.8807 92.4091C53.9413 90.5 56.3504 87.9394 58.108 84.7273C59.8958 81.5152 60.7898 77.9394 60.7898 74C60.7898 70.1515 59.9261 66.6515 58.1989 63.5C56.5019 60.3182 54.1534 57.7879 51.1534 55.9091C48.1837 54.0303 44.7898 53.0909 40.9716 53.0909C38.0928 53.0909 35.411 53.6667 32.9261 54.8182C30.4413 55.9394 28.2595 57.4848 26.3807 59.4545C24.5322 61.4242 23.0777 63.6818 22.017 66.2273C20.9564 68.7424 20.4261 71.3939 20.4261 74.1818C20.4261 77.8788 21.2898 81.3333 23.017 84.5455C24.7746 87.7576 27.1686 90.3485 30.1989 92.3182C33.2595 94.2879 36.7292 95.2727 40.608 95.2727Z" fill="black"/>
</svg>
