<svg width="83" height="114" viewBox="0 0 83 114" fill="none" xmlns="http://www.w3.org/2000/svg">
<path d="M39.517 105.273C33.2746 105.273 27.7595 104.167 22.9716 101.955C18.214 99.7121 14.5019 96.6364 11.8352 92.7273C9.16856 88.7879 7.85038 84.303 7.88068 79.2727C7.85038 75.3333 8.62311 71.697 10.1989 68.3636C11.7746 65 13.9261 62.197 16.6534 59.9545C19.411 57.6818 22.4867 56.2424 25.8807 55.6364V55.0909C21.4261 53.9394 17.8807 51.4394 15.2443 47.5909C12.608 43.7121 11.3049 39.303 11.3352 34.3636C11.3049 29.6364 12.5019 25.4091 14.9261 21.6818C17.3504 17.9545 20.6837 15.0151 24.9261 12.8636C29.1989 10.7121 34.0625 9.63636 39.517 9.63636C44.911 9.63636 49.7292 10.7121 53.9716 12.8636C58.214 15.0151 61.5473 17.9545 63.9716 21.6818C66.4261 25.4091 67.6686 29.6364 67.6989 34.3636C67.6686 39.303 66.3201 43.7121 63.6534 47.5909C61.017 51.4394 57.517 53.9394 53.1534 55.0909V55.6364C56.517 56.2424 59.5473 57.6818 62.2443 59.9545C64.9413 62.197 67.0928 65 68.6989 68.3636C70.3049 71.697 71.1231 75.3333 71.1534 79.2727C71.1231 84.303 69.7595 88.7879 67.0625 92.7273C64.3958 96.6364 60.6837 99.7121 55.9261 101.955C51.1989 104.167 45.7292 105.273 39.517 105.273ZM39.517 95.2727C43.7292 95.2727 47.3655 94.5909 50.4261 93.2273C53.4867 91.8636 55.8504 89.9394 57.517 87.4545C59.1837 84.9697 60.0322 82.0606 60.0625 78.7273C60.0322 75.2121 59.1231 72.1061 57.3352 69.4091C55.5474 66.7121 53.108 64.5909 50.017 63.0455C46.9564 61.5 43.4564 60.7273 39.517 60.7273C35.5473 60.7273 32.0019 61.5 28.8807 63.0455C25.7898 64.5909 23.3504 66.7121 21.5625 69.4091C19.8049 72.1061 18.9413 75.2121 18.9716 78.7273C18.9413 82.0606 19.7443 84.9697 21.3807 87.4545C23.0473 89.9394 25.4261 91.8636 28.517 93.2273C31.608 94.5909 35.2746 95.2727 39.517 95.2727ZM39.517 51.0909C42.8504 51.0909 45.8049 50.4242 48.3807 49.0909C50.9867 47.7576 53.0322 45.8939 54.517 43.5C56.0019 41.1061 56.7595 38.303 56.7898 35.0909C56.7595 31.9394 56.017 29.197 54.5625 26.8636C53.108 24.5 51.0928 22.6818 48.517 21.4091C45.9413 20.1061 42.9413 19.4545 39.517 19.4545C36.0322 19.4545 32.9867 20.1061 30.3807 21.4091C27.7746 22.6818 25.7595 24.5 24.3352 26.8636C22.911 29.197 22.214 31.9394 22.2443 35.0909C22.214 38.303 22.9261 41.1061 24.3807 43.5C25.8655 45.8939 27.911 47.7576 30.517 49.0909C33.1231 50.4242 36.1231 51.0909 39.517 51.0909Z" fill="black"/>
</svg>
