<svg width="83" height="114" viewBox="0 0 83 114" fill="none" xmlns="http://www.w3.org/2000/svg">
<path d="M39.3352 9.63636C43.1534 9.66666 46.9716 10.3939 50.7898 11.8182C54.608 13.2424 58.0928 15.6061 61.2443 18.9091C64.3958 22.1818 66.9261 26.6515 68.8352 32.3182C70.7443 37.9848 71.6989 45.0909 71.6989 53.6364C71.6989 61.9091 70.911 69.2576 69.3352 75.6818C67.7898 82.0758 65.5473 87.4697 62.608 91.8636C59.6989 96.2576 56.1534 99.5909 51.9716 101.864C47.8201 104.136 43.1231 105.273 37.8807 105.273C32.6686 105.273 28.017 104.242 23.9261 102.182C19.8655 100.091 16.5322 97.197 13.9261 93.5C11.3504 89.7727 9.69886 85.4545 8.97159 80.5455H20.0625C21.0625 84.8182 23.0473 88.3485 26.017 91.1364C29.017 93.8939 32.9716 95.2727 37.8807 95.2727C45.0625 95.2727 50.7292 92.1364 54.8807 85.8636C59.0625 79.5909 61.1534 70.7273 61.1534 59.2727H60.4261C58.7292 61.8182 56.714 64.0152 54.3807 65.8636C52.0474 67.7121 49.4564 69.1364 46.608 70.1364C43.7595 71.1364 40.7292 71.6364 37.517 71.6364C32.1837 71.6364 27.2898 70.3182 22.8352 67.6818C18.411 65.0151 14.8655 61.3636 12.1989 56.7273C9.5625 52.0606 8.24432 46.7273 8.24432 40.7273C8.24432 35.0303 9.51705 29.8182 12.0625 25.0909C14.6383 20.3333 18.2443 16.5455 22.8807 13.7273C27.5473 10.9091 33.0322 9.54545 39.3352 9.63636ZM39.3352 19.6364C35.517 19.6364 32.0777 20.5909 29.017 22.5C25.9867 24.3788 23.5777 26.9242 21.7898 30.1364C20.0322 33.3182 19.1534 36.8485 19.1534 40.7273C19.1534 44.6061 20.0019 48.1364 21.6989 51.3182C23.4261 54.4697 25.7746 56.9848 28.7443 58.8636C31.7443 60.7121 35.1534 61.6364 38.9716 61.6364C41.8504 61.6364 44.5322 61.0758 47.017 59.9545C49.5019 58.803 51.6686 57.2424 53.517 55.2727C55.3958 53.2727 56.8655 51.0151 57.9261 48.5C58.9867 45.9545 59.517 43.303 59.517 40.5455C59.517 36.9091 58.6383 33.5 56.8807 30.3182C55.1534 27.1364 52.7595 24.5606 49.6989 22.5909C46.6686 20.6212 43.214 19.6364 39.3352 19.6364Z" fill="black"/>
</svg>
